<svg xmlns="http://www.w3.org/2000/svg" xmlns:xlink="http://www.w3.org/1999/xlink" width="500" zoomAndPan="magnify" viewBox="0 0 375 374.999991" height="500" preserveAspectRatio="xMidYMid meet" version="1.0"><defs><g/><clipPath id="0b31a4c17c"><path d="M 0 225.101562 L 375 225.101562 L 375 295.191406 L 0 295.191406 Z M 0 225.101562 " clip-rule="nonzero"/></clipPath></defs><rect x="-37.5" width="450" fill="#ffffff" y="-37.499999" height="449.999989" fill-opacity="1"/><rect x="-37.5" width="450" fill="#ffffff" y="-37.499999" height="449.999989" fill-opacity="1"/><g clip-path="url(#0b31a4c17c)"><path fill="#ffffff" d="M 0 225.101562 L 375.085938 225.101562 L 375.085938 295.191406 L 0 295.191406 Z M 0 225.101562 " fill-opacity="1" fill-rule="nonzero"/></g><g fill="#000000" fill-opacity="1"><g transform="translate(175.93359, 355.124977)"><g><path d="M 37.796875 -63 C 34.992188 -63.9375 33.59375 -65.800781 33.59375 -68.59375 C 33.59375 -70 34.992188 -71.632812 37.796875 -73.5 C 38.734375 -73.96875 41.179688 -74.550781 45.140625 -75.25 C 49.109375 -75.945312 52.726562 -76.53125 56 -77 C 63.46875 -77.9375 73.148438 -78.632812 85.046875 -79.09375 C 96.953125 -79.5625 108.035156 -79.796875 118.296875 -79.796875 C 133.234375 -79.796875 141.632812 -79.332031 143.5 -78.40625 C 147.226562 -76.53125 148.160156 -73.726562 146.296875 -70 C 145.367188 -67.664062 141.867188 -66.5 135.796875 -66.5 C 122.734375 -66.5 109.785156 -66.265625 96.953125 -65.796875 C 84.117188 -65.328125 71.398438 -64.628906 58.796875 -63.703125 C 55.066406 -63.234375 51.914062 -62.878906 49.34375 -62.640625 C 46.78125 -62.410156 44.566406 -62.296875 42.703125 -62.296875 C 39.898438 -62.296875 38.265625 -62.53125 37.796875 -63 Z M 37.796875 -63 "/></g></g></g><g fill="#000000" fill-opacity="1"><g transform="translate(37.697434, 277.769799)"><g><path d="M 23.09375 -22.40625 L 41.296875 -73.5 C 45.960938 -87.96875 52.03125 -104.300781 59.5 -122.5 C 66.96875 -140.695312 73.734375 -156.796875 79.796875 -170.796875 C 83.535156 -178.734375 87.503906 -187.367188 91.703125 -196.703125 C 95.898438 -206.035156 101.265625 -210.703125 107.796875 -210.703125 C 113.398438 -210.703125 117.015625 -208.25 118.640625 -203.34375 C 120.273438 -198.445312 121.09375 -192.613281 121.09375 -185.84375 C 121.09375 -179.082031 121.09375 -172.4375 121.09375 -165.90625 L 119.703125 -110.59375 C 119.234375 -94.726562 119.234375 -80.378906 119.703125 -67.546875 C 120.171875 -54.710938 120.632812 -41.53125 121.09375 -28 C 121.5625 -23.332031 122.144531 -19.25 122.84375 -15.75 C 123.550781 -12.25 124.132812 -8.398438 124.59375 -4.203125 C 127.394531 -6.535156 130.195312 -10.5 133 -16.09375 C 135.800781 -21.695312 138.132812 -26.132812 140 -29.40625 C 142.332031 -33.601562 144.546875 -37.800781 146.640625 -42 C 148.742188 -46.195312 150.960938 -50.628906 153.296875 -55.296875 L 167.296875 -81.203125 C 168.703125 -84.003906 169.867188 -86.335938 170.796875 -88.203125 C 171.734375 -90.066406 172.898438 -92.164062 174.296875 -94.5 C 176.628906 -98.695312 179.894531 -104.644531 184.09375 -112.34375 C 188.300781 -120.050781 193.203125 -123.90625 198.796875 -123.90625 C 199.734375 -123.90625 200.316406 -123.785156 200.546875 -123.546875 C 200.785156 -123.316406 201.132812 -123.203125 201.59375 -123.203125 C 206.257812 -121.796875 209.875 -117.476562 212.4375 -110.25 C 215.007812 -103.019531 217.695312 -94.96875 220.5 -86.09375 C 223.300781 -77.226562 226.914062 -69.410156 231.34375 -62.640625 C 235.78125 -55.878906 241.734375 -52.5 249.203125 -52.5 C 255.734375 -52.5 263.429688 -55.296875 272.296875 -60.890625 C 281.160156 -66.492188 289.5625 -71.976562 297.5 -77.34375 C 305.4375 -82.71875 311.503906 -85.40625 315.703125 -85.40625 C 318.960938 -85.40625 320.59375 -83.300781 320.59375 -79.09375 C 320.59375 -76.300781 316.394531 -71.40625 308 -64.40625 C 299.601562 -57.40625 289.6875 -50.867188 278.25 -44.796875 C 266.8125 -38.734375 256.660156 -35.703125 247.796875 -35.703125 C 238.460938 -35.703125 230.0625 -39.898438 222.59375 -48.296875 C 215.132812 -56.703125 209.300781 -66.269531 205.09375 -77 C 200.894531 -87.726562 198.5625 -96.128906 198.09375 -102.203125 C 195.300781 -100.335938 191.921875 -95.550781 187.953125 -87.84375 C 183.984375 -80.144531 180.832031 -74.429688 178.5 -70.703125 C 176.632812 -67.429688 175.117188 -64.628906 173.953125 -62.296875 C 172.785156 -59.960938 171.269531 -57.394531 169.40625 -54.59375 L 143.5 -4.203125 C 141.632812 -0.460938 139.066406 3.617188 135.796875 8.046875 C 132.535156 12.484375 128.570312 14.703125 123.90625 14.703125 C 122.5 14.703125 119.929688 13.769531 116.203125 11.90625 C 112.003906 9.101562 108.738281 2.101562 106.40625 -9.09375 C 104.070312 -20.300781 102.550781 -33.835938 101.84375 -49.703125 C 101.144531 -65.566406 100.796875 -81.78125 100.796875 -98.34375 C 100.796875 -114.914062 100.910156 -130.082031 101.140625 -143.84375 C 101.378906 -157.613281 101.5 -167.765625 101.5 -174.296875 C 101.5 -173.828125 101.378906 -173.476562 101.140625 -173.25 C 100.910156 -173.019531 100.796875 -172.90625 100.796875 -172.90625 L 62.296875 -80.5 C 59.035156 -72.101562 56.003906 -63.820312 53.203125 -55.65625 C 50.398438 -47.488281 47.832031 -39.203125 45.5 -30.796875 C 44.101562 -27.066406 42.351562 -21.816406 40.25 -15.046875 C 38.144531 -8.285156 35.578125 -2.101562 32.546875 3.5 C 29.515625 9.101562 25.898438 11.90625 21.703125 11.90625 C 15.628906 11.90625 11.539062 7.820312 9.4375 -0.34375 C 7.34375 -8.507812 6.410156 -18.773438 6.640625 -31.140625 C 6.878906 -43.515625 7.929688 -56.347656 9.796875 -69.640625 C 11.660156 -82.941406 13.523438 -94.957031 15.390625 -105.6875 C 17.265625 -116.425781 18.664062 -123.894531 19.59375 -128.09375 C 21.925781 -137.894531 24.257812 -144.660156 26.59375 -148.390625 C 28.925781 -152.128906 31.03125 -154 32.90625 -154 C 35.238281 -154 36.988281 -152.832031 38.15625 -150.5 C 39.320312 -148.164062 39.90625 -145.363281 39.90625 -142.09375 C 39.90625 -140.226562 39.203125 -138.945312 37.796875 -138.25 C 36.398438 -137.550781 35.46875 -137.203125 35 -137.203125 C 31.726562 -133.929688 29.273438 -126.460938 27.640625 -114.796875 C 26.015625 -103.128906 24.96875 -91.34375 24.5 -79.4375 C 24.03125 -67.539062 23.5625 -59.03125 23.09375 -53.90625 C 23.09375 -50.164062 22.859375 -47.59375 22.390625 -46.1875 C 21.929688 -44.789062 21.9375 -42.226562 22.40625 -38.5 C 22.40625 -36.164062 22.519531 -33.832031 22.75 -31.5 C 22.976562 -29.164062 23.09375 -26.132812 23.09375 -22.40625 Z M 23.09375 -22.40625 "/></g></g></g><path fill="#000000" d="M 336.625 161.335938 C 330.375 161.335938 325.289062 166.421875 325.289062 172.671875 C 325.289062 178.921875 330.375 184.007812 336.625 184.007812 C 342.875 184.007812 347.960938 178.921875 347.960938 172.671875 C 347.960938 166.421875 342.875 161.335938 336.625 161.335938 Z M 336.625 163.082031 C 341.933594 163.082031 346.21875 167.363281 346.21875 172.671875 C 346.21875 177.980469 341.933594 182.265625 336.625 182.265625 C 331.320312 182.265625 327.035156 177.980469 327.035156 172.671875 C 327.035156 167.363281 331.320312 163.082031 336.625 163.082031 Z M 332.265625 166.570312 L 332.265625 178.777344 L 334.011719 178.777344 L 334.011719 175.289062 L 336.1875 175.289062 L 338.761719 178.777344 L 340.929688 178.777344 L 338.140625 175 C 339.796875 174.378906 340.984375 172.792969 340.984375 170.929688 C 340.984375 168.53125 339.023438 166.570312 336.625 166.570312 Z M 334.011719 168.3125 L 336.625 168.3125 C 338.082031 168.3125 339.242188 169.472656 339.242188 170.929688 C 339.242188 172.382812 338.082031 173.542969 336.625 173.542969 L 334.011719 173.542969 Z M 334.011719 168.3125 " fill-opacity="1" fill-rule="nonzero"/></svg>